<?xml version="1.0" encoding="UTF-8"?>
<svg id="Camada_1" data-name="Camada 1" xmlns="http://www.w3.org/2000/svg" viewBox="0 0 500 500">
  <defs>
    <style>
      .cls-1 {
        fill: #8ed7fd;
      }

      .cls-2 {
        fill: #fa2f6a;
        stroke: #ee2153;
        stroke-miterlimit: 10;
      }

      .cls-3 {
        fill: #ff7785;
      }

      .cls-4 {
        fill: #075e34;
      }

      .cls-5 {
        fill: #fefefe;
      }

      .cls-6 {
        fill: #b1e3fe;
      }
    </style>
  </defs>
  <path class="cls-4" d="M307.83,247.5c1.03-4.06,1.69-8.26,3.22-12.12,.99-2.49,3-4.75,5.02-6.61,3.38-3.11,5.24-7.08,7.16-11.06,.19-.4,.16-.92,.26-1.66-.65,.12-1.16,.09-1.51,.3-5.19,3.08-8.85,7.29-9.84,13.47-.16,1-.67,1.94-1.02,2.91-.19-.03-.39-.05-.58-.08,.09-3.22,.27-6.45,.26-9.67-.01-4.45,1.25-8.56,3.04-12.57,1.2-2.69,1.11-5.44,.28-8.25-.57-1.91-.9-3.9-1.42-6.2-.74,.52-1.39,.79-1.78,1.27-4.08,5.06-5.55,10.66-3.29,16.95,2.48,6.89,1.95,13.98,1.38,21.07-.02,.19-.16,.37-.78,.67-.61-3.08-1.16-6.16-1.83-9.23-.53-2.43-.83-5.02-1.9-7.21-1.37-2.81-3.38-5.32-5.17-7.92-.28-.41-.84-.63-1.27-.94-.35,.49-.92,.94-1,1.47-.74,5.04,.85,12.01,5.76,15.43,1.32,.92,2.2,2.58,3.06,4.04,.55,.94,.7,2.12,1.02,3.2,2.75,9.19-.91,16.3-7.37,22.44-1.78,1.69-3.87,3.04-5.63,4.75-1.15,1.12-1.96,2.59-2.92,3.91l.43,.44c.33-.12,.76-.14,.98-.37,2.14-2.19,4.27-4.39,6.36-6.62,3.78-4.03,7.56-8.08,11.3-12.15,1.23-1.34,2.45-2.72,3.51-4.21,3.18-4.47,7.64-6.39,12.92-6.79,1.68-.13,3.36-.27,5.04-.37,2.53-.16,4.59,.41,6.6,2.36,2.73,2.66,6.56,3.03,10.25,3.06,3.47,.03,6.96-1.03,10.4,.3,.14,.05,.37-.14,1.01-.42-.75-.92-1.26-1.96-2.08-2.49-5.03-3.2-10.65-4.57-16.54-4.96-.34-.02-.76-.02-1.03,.15-3.55,2.27-7.37,.13-11.13,.52,.39-.14,.79-.29,1.19-.42,.47-.15,.95-.27,1.42-.4,4.99-1.44,9.99-2.89,14.99-4.31,.73-.21,1.52-.34,2.27-.3,5.99,.34,10.94-1.96,15.26-5.93,2.17-1.99,4.36-3.96,6.53-5.95,.23-.21,.34-.55,.54-.88-.29-.16-.48-.36-.62-.33-7.07,1.31-14.31,2.45-19.44,8.13-4.62,5.12-10.94,5.84-16.9,7.62-.15-.18-.3-.37-.45-.55,1.05-.99,1.96-2.57,3.19-2.87,5.75-1.44,8.7-5.85,11.71-10.29,.69-1.01,1.42-1.99,2.5-3.5-1.18,.16-1.89,.09-2.43,.35-3.32,1.63-6.77,3.1-9.83,5.14-1.51,1-2.39,3.04-3.35,4.72-.8,1.39-1.25,2.98-1.94,4.44-.98,2.09-2.59,3.33-4.87,3.99-3.35,.98-6.62,2.27-9.8,3.38,2.24-3.2,4.67-6.56,6.99-10.01,2.82-4.19,5.49-8.49,8.33-12.67,3.72-5.47,8.7-9.74,13.84-13.78,4.03-3.17,11.19-3.16,14.94,.27,4.85,4.44,9.76,3.69,14.96,1.15,1.57-.77,1.69-1.74,.09-2.51-5.51-2.65-10.98-5.35-17.48-3.04-2.38,.85-5.1,.73-8.23,1.13,.68-.73,.92-1.12,1.28-1.33,3.68-2.19,7.3-4.47,11.08-6.46,2.1-1.11,4.36-.99,6.7-.03,4.4,1.79,9.1,1.78,13.38-.03,4.06-1.72,7.73-4.36,11.58-6.6-.08-.23-.16-.46-.24-.69-.42-.09-.84-.24-1.26-.27-.77-.06-1.6,.12-2.3-.1-7.78-2.53-14.61-.14-21.19,3.91-1.4,.86-3.12,1.19-4.66,1.85-2.76,1.19-5.5,2.45-8.23,3.7-.61,.28-1.16,.66-1.93,.78,1.7-2.3,3.35-4.64,5.14-6.88,.42-.53,1.28-.79,1.99-1,4.02-1.18,7.15-3.3,9.13-7.2,1.07-2.12,2.84-3.9,4.58-6.21-.98,.05-1.81-.13-2.45,.15-3.08,1.35-6.19,2.68-9.14,4.3-2.25,1.24-3.35,3.46-3.99,5.96-.37,1.44-1.05,2.86-1.85,4.11-4.11,6.4-9.49,11.61-15.43,16.29-2.19,1.72-4.17,3.7-6.58,5.37,1.3-2.4,2.58-4.82,3.91-7.21,5.87-10.49,11.68-21.02,17.67-31.45,2.99-5.21,5.46-10.78,10.28-14.79,2.25-1.87,4.33-3.16,7.36-1.95,7.04,2.81,13.02,.25,18.62-3.94,.3-.22,.44-.66,.77-1.17-.6-.17-1.03-.36-1.47-.42-2.43-.33-4.87-.9-7.29-.84-2.33,.05-4.79,.4-6.93,1.26-4,1.61-7.81,3.7-12.08,5.77,1.98-2.82,3.73-5.41,5.59-7.92,2.76-3.72,5.86-7.22,8.34-11.12,2.64-4.15,6.54-5.75,10.9-7.24,5.14-1.75,10.05-4.17,15.18-6.34-.94-2.1-2.58-2.62-4.1-2.41-7.21,.98-14.37,1.96-18.38,9.51-1.7,3.21-4.3,5.94-6.49,8.89-.21-.1-.43-.2-.64-.29,.78-2.71,1.53-5.43,2.36-8.13,1.84-5.99,.76-11.55-2.54-16.71-1.13-1.76-2.58-3.32-3.93-4.93-.2-.24-.63-.3-.77-.37-.15,2.42-.13,4.78-.48,7.08-.66,4.33,.27,8.4,1.72,12.39,.34,.93,1.1,1.83,1.89,2.44,1.48,1.13,1.79,2.42,1.53,4.22-.62,4.44-1.55,8.64-4.93,12-1.69,1.68-2.9,3.85-4.53,6.07-.07-.59-.12-.84-.12-1.09,.19-5.99,.53-11.99,.5-17.98,0-1.78-.64-3.87-1.71-5.26-2.51-3.26-5.35-6.28-8.27-9.19-1.1-1.1-2.66-2.09-4.7-1.29,.17,.52,.32,.96,.44,1.4,.59,2.07,1.55,4.12,1.7,6.23,.36,5.22,2.54,9.39,6.79,12.24,3.93,2.63,5.31,5.86,4.56,10.56-.76,4.79-1.94,9.24-4.58,13.39-3.2,5.02-6,10.3-9.31,15.35,.14-.8,.31-1.6,.42-2.41,.47-3.34,1.08-6.66,1.34-10.02,.32-4.25,1.23-8.24,3.02-12.16,1.48-3.22,1.8-6.81,.28-10.25-.85-1.92-.77-4.32-2.83-5.76-.29,.26-.6,.4-.67,.62-1.73,4.97-3.86,9.97-1.71,15.3,2.46,6.07,.48,12.01,.07,18-.26,.05-.52,.1-.78,.16-1.04-3.44-2.36-6.82-3.04-10.32-1.31-6.7-6.24-10.72-10.55-15.84-1.4,2.71-.89,5.05-.3,7.16,1.23,4.45,2.99,8.65,7.44,11.02,5.21,2.77,7.19,12.25,5.3,16.74-2.22,5.29-4.73,10.5-7.5,15.53-5.29,9.61-10.84,19.07-16.31,28.58-.83,1.44-1.81,2.8-2.89,4.13,1.5-6.71,1.21-13.47,1.5-20.21,.28-6.35,.52-12.88,4.28-18.65,2.58-3.96,1.74-8.46,.76-13.31-3.04,2.91-5.33,5.77-5.54,9.68-.14,2.65,.26,5.32,.29,7.98,.04,2.56-.08,5.13-.13,7.56-1.57-3.99-3.56-7.84-4.54-11.94-.91-3.83-.92-7.92-1.02-11.9-.13-5-1.95-9.14-5.58-12.5-1.58-1.46-3.26-2.81-5.3-4.55-.52,3.62-1.12,6.79,.06,10.01,1.66,4.53,3.78,8.68,7.64,11.88,1.25,1.04,1.71,3.11,2.36,4.77,.61,1.55,.75,3.32,1.52,4.77,2.75,5.18,3.37,10.81,3.59,16.64-.26-.41-.52-.82-.78-1.22-3.88-6.03-6.83-12.55-10.01-18.95-1.84-3.7-5.42-6.14-9.59-7.08,1.42,7.58,3.58,14.5,11.48,17.79,.89,.37,1.84,.89,2.44,1.62,3.99,4.87,7.12,10.15,6.86,16.76-.33,8.68-2.81,16.54-8.72,23.18-3.31,3.71-6.34,7.67-9.5,11.52-.12-.05-.24-.11-.35-.16Z"/>
  <path class="cls-4" d="M172.08,247.5c-1.03-4.06-1.69-8.26-3.22-12.12-.99-2.49-3-4.75-5.02-6.61-3.38-3.11-5.24-7.08-7.16-11.06-.19-.4-.16-.92-.26-1.66,.65,.12,1.16,.09,1.51,.3,5.19,3.08,8.85,7.29,9.84,13.47,.16,1,.67,1.94,1.02,2.91,.19-.03,.39-.05,.58-.08-.09-3.22-.27-6.45-.26-9.67,.01-4.45-1.25-8.56-3.04-12.57-1.2-2.69-1.11-5.44-.28-8.25,.57-1.91,.9-3.9,1.42-6.2,.74,.52,1.39,.79,1.78,1.27,4.08,5.06,5.55,10.66,3.29,16.95-2.48,6.89-1.95,13.98-1.38,21.07,.02,.19,.16,.37,.78,.67,.61-3.08,1.16-6.16,1.83-9.23,.53-2.43,.83-5.02,1.9-7.21,1.37-2.81,3.38-5.32,5.17-7.92,.28-.41,.84-.63,1.27-.94,.35,.49,.92,.94,1,1.47,.74,5.04-.85,12.01-5.76,15.43-1.32,.92-2.2,2.58-3.06,4.04-.55,.94-.7,2.12-1.02,3.2-2.75,9.19,.91,16.3,7.37,22.44,1.78,1.69,3.87,3.04,5.63,4.75,1.15,1.12,1.96,2.59,2.92,3.91l-.43,.44c-.33-.12-.76-.14-.98-.37-2.14-2.19-4.27-4.39-6.36-6.62-3.78-4.03-7.56-8.08-11.3-12.15-1.23-1.34-2.45-2.72-3.51-4.21-3.18-4.47-7.64-6.39-12.92-6.79-1.68-.13-3.36-.27-5.04-.37-2.53-.16-4.59,.41-6.6,2.36-2.73,2.66-6.56,3.03-10.25,3.06-3.47,.03-6.96-1.03-10.4,.3-.14,.05-.37-.14-1.01-.42,.75-.92,1.26-1.96,2.08-2.49,5.03-3.2,10.65-4.57,16.54-4.96,.34-.02,.76-.02,1.03,.15,3.55,2.27,7.37,.13,11.13,.52-.39-.14-.79-.29-1.19-.42-.47-.15-.95-.27-1.42-.4-4.99-1.44-9.99-2.89-14.99-4.31-.73-.21-1.52-.34-2.27-.3-5.99,.34-10.94-1.96-15.26-5.93-2.17-1.99-4.36-3.96-6.53-5.95-.23-.21-.34-.55-.54-.88,.29-.16,.48-.36,.62-.33,7.07,1.31,14.31,2.45,19.44,8.13,4.62,5.12,10.94,5.84,16.9,7.62,.15-.18,.3-.37,.45-.55-1.05-.99-1.96-2.57-3.19-2.87-5.75-1.44-8.7-5.85-11.71-10.29-.69-1.01-1.42-1.99-2.5-3.5,1.18,.16,1.89,.09,2.43,.35,3.32,1.63,6.77,3.1,9.83,5.14,1.51,1,2.39,3.04,3.35,4.72,.8,1.39,1.25,2.98,1.94,4.44,.98,2.09,2.59,3.33,4.87,3.99,3.35,.98,6.62,2.27,9.8,3.38-2.24-3.2-4.67-6.56-6.99-10.01-2.82-4.19-5.49-8.49-8.33-12.67-3.72-5.47-8.7-9.74-13.84-13.78-4.03-3.17-11.19-3.16-14.94,.27-4.85,4.44-9.76,3.69-14.96,1.15-1.57-.77-1.69-1.74-.09-2.51,5.51-2.65,10.98-5.35,17.48-3.04,2.38,.85,5.1,.73,8.23,1.13-.68-.73-.92-1.12-1.28-1.33-3.68-2.19-7.3-4.47-11.08-6.46-2.1-1.11-4.36-.99-6.7-.03-4.4,1.79-9.1,1.78-13.38-.03-4.06-1.72-7.73-4.36-11.58-6.6,.08-.23,.16-.46,.24-.69,.42-.09,.84-.24,1.26-.27,.77-.06,1.6,.12,2.3-.1,7.78-2.53,14.61-.14,21.19,3.91,1.4,.86,3.12,1.19,4.66,1.85,2.76,1.19,5.5,2.45,8.23,3.7,.61,.28,1.16,.66,1.93,.78-1.7-2.3-3.35-4.64-5.14-6.88-.42-.53-1.28-.79-1.99-1-4.02-1.18-7.15-3.3-9.13-7.2-1.07-2.12-2.84-3.9-4.58-6.21,.98,.05,1.81-.13,2.45,.15,3.08,1.35,6.19,2.68,9.14,4.3,2.25,1.24,3.35,3.46,3.99,5.96,.37,1.44,1.05,2.86,1.85,4.11,4.11,6.4,9.49,11.61,15.43,16.29,2.19,1.72,4.17,3.7,6.58,5.37-1.3-2.4-2.58-4.82-3.91-7.21-5.87-10.49-11.68-21.02-17.67-31.45-2.99-5.21-5.46-10.78-10.28-14.79-2.25-1.87-4.33-3.16-7.36-1.95-7.04,2.81-13.02,.25-18.62-3.94-.3-.22-.44-.66-.77-1.17,.6-.17,1.03-.36,1.47-.42,2.43-.33,4.87-.9,7.29-.84,2.33,.05,4.79,.4,6.93,1.26,4,1.61,7.81,3.7,12.08,5.77-1.98-2.82-3.73-5.41-5.59-7.92-2.76-3.72-5.86-7.22-8.34-11.12-2.64-4.15-6.54-5.75-10.9-7.24-5.14-1.75-10.05-4.17-15.18-6.34,.94-2.1,2.58-2.62,4.1-2.41,7.21,.98,14.37,1.96,18.38,9.51,1.7,3.21,4.3,5.94,6.49,8.89,.21-.1,.43-.2,.64-.29-.78-2.71-1.53-5.43-2.36-8.13-1.84-5.99-.76-11.55,2.54-16.71,1.13-1.76,2.58-3.32,3.93-4.93,.2-.24,.63-.3,.77-.37,.15,2.42,.13,4.78,.48,7.08,.66,4.33-.27,8.4-1.72,12.39-.34,.93-1.1,1.83-1.89,2.44-1.48,1.13-1.79,2.42-1.53,4.22,.62,4.44,1.55,8.64,4.93,12,1.69,1.68,2.9,3.85,4.53,6.07,.07-.59,.12-.84,.12-1.09-.19-5.99-.53-11.99-.5-17.98,0-1.78,.64-3.87,1.71-5.26,2.51-3.26,5.35-6.28,8.27-9.19,1.1-1.1,2.66-2.09,4.7-1.29-.17,.52-.32,.96-.44,1.4-.59,2.07-1.55,4.12-1.7,6.23-.36,5.22-2.54,9.39-6.79,12.24-3.93,2.63-5.31,5.86-4.56,10.56,.76,4.79,1.94,9.24,4.58,13.39,3.2,5.02,6,10.3,9.31,15.35-.14-.8-.31-1.6-.42-2.41-.47-3.34-1.08-6.66-1.34-10.02-.32-4.25-1.23-8.24-3.02-12.16-1.48-3.22-1.8-6.81-.28-10.25,.85-1.92,.77-4.32,2.83-5.76,.29,.26,.6,.4,.67,.62,1.73,4.97,3.86,9.97,1.71,15.3-2.46,6.07-.48,12.01-.07,18,.26,.05,.52,.1,.78,.16,1.04-3.44,2.36-6.82,3.04-10.32,1.31-6.7,6.24-10.72,10.55-15.84,1.4,2.71,.89,5.05,.3,7.16-1.23,4.45-2.99,8.65-7.44,11.02-5.21,2.77-7.19,12.25-5.3,16.74,2.22,5.29,4.73,10.5,7.5,15.53,5.29,9.61,10.84,19.07,16.31,28.58,.83,1.44,1.81,2.8,2.89,4.13-1.5-6.71-1.21-13.47-1.5-20.21-.28-6.35-.52-12.88-4.28-18.65-2.58-3.96-1.74-8.46-.76-13.31,3.04,2.91,5.33,5.77,5.54,9.68,.14,2.65-.26,5.32-.29,7.98-.04,2.56,.08,5.13,.13,7.56,1.57-3.99,3.56-7.84,4.54-11.94,.91-3.83,.92-7.92,1.02-11.9,.13-5,1.95-9.14,5.58-12.5,1.58-1.46,3.26-2.81,5.3-4.55,.52,3.62,1.12,6.79-.06,10.01-1.66,4.53-3.78,8.68-7.64,11.88-1.25,1.04-1.71,3.11-2.36,4.77-.61,1.55-.75,3.32-1.52,4.77-2.75,5.18-3.37,10.81-3.59,16.64,.26-.41,.52-.82,.78-1.22,3.88-6.03,6.83-12.55,10.01-18.95,1.84-3.7,5.42-6.14,9.59-7.08-1.42,7.58-3.58,14.5-11.48,17.79-.89,.37-1.84,.89-2.44,1.62-3.99,4.87-7.12,10.15-6.86,16.76,.33,8.68,2.81,16.54,8.72,23.18,3.31,3.71,6.34,7.67,9.5,11.52,.12-.05,.24-.11,.35-.16Z"/>
  <path class="cls-1" d="M81.95,257.4c20.04,.65,40.04,2.13,60.05,3.35,11.87,.73,23.8,2.46,35.77,.38,6.48-1.13,7.31-2.63,4.19-8.34-2.71-4.96-5.52-9.92-6.41-15.64-.78-5.03,.58-7.94,5.3-9.88,6.63-2.73,13.7-3.09,20.76-2.72,22.81,1.19,45.11,5.93,67.59,9.5,12.87,2.04,25.14-2.34,37.09-6.91,14.17-5.42,27.53-12.79,42.05-17.34,9.33-2.92,18.79-4.37,28.49-2.13,7.27,1.68,8.31,5.31,3.13,10.91-4.37,4.73-9.14,9.06-13.31,14-6.77,8.05-5.23,15.11,4.49,19.17,11.15,4.65,22.98,6.13,34.85,7.5,15.5,1.78,31.07,3.28,45.42,10.16,2.21,1.06,4.35,2.22,6.18,3.94,6.32,5.97,6.6,12,.55,18.36-10.26,10.79-23.68,15.58-37.6,19.12-12.53,3.19-25.21,4.09-38.23,3.35-9.03-.51-18.38,.29-26.8,4.88-8.01,4.37-9.41,11.58-3.35,18.56,6.97,8.03,16.16,12.48,25.97,15.91,6.92,2.42,14.12,4.25,19.47,9.85,5.15,5.39,5.33,10.35,.03,15.6-6.77,6.72-15.58,8.92-24.59,10.26-18.94,2.81-37.56,.51-56.01-3.97-15.93-3.87-32.02-6.94-48.42-7.7-12-.55-23.78,1.71-35.43,4.42-20.71,4.83-41.39,9.82-62.52,12.43-7.73,.96-15.62,1.36-23.34-.55-5.29-1.31-9.73-4.12-12.1-9.12-5.25-11.07-14.65-14.49-25.94-14.84-9.33-.29-18.7,1.04-27.99-.91-10.58-2.22-13.55-9.02-7.75-18.18,5.97-9.43,13.76-17.27,22.23-24.39,8.81-7.41,8.42-12.16-2.28-16.8-8.85-3.83-17.98-7.01-26.9-10.7-8.67-3.59-17.05-7.68-23.52-14.87-3-3.33-4.76-7.15-5.42-11.45-.74-4.82,2.13-7.77,5.97-9.91,4.91-2.75,10.41-3.77,15.86-4.24,7.47-.64,14.95-1.68,22.49-1.07Zm295.75,14.71c-8.57-.11-17.13,.25-25.68-.85-5.42-.69-6.35-1.84-3.96-6.63,2.98-5.97,1.48-12.73-4.05-14.99-4.46-1.82-9.3-2.99-14.34-2.29-5.93,.83-11.61,2.52-17.24,4.5-9,3.17-18.24,3.58-27.59,2.07-18.63-3.01-36.22-9.84-54.34-14.72-8.26-2.23-16.54-4.43-25.23-3.94-6.73,.38-10.08,4.91-9.05,11.49,1.24,7.97,2.73,15.89,2.64,24.06-.14,12.32-5.26,13.78-13.4,16-9.47,2.58-18.91,.21-28.16-1.21-18.39-2.82-36.38-7.66-54.46-12.08-14.05-3.44-28.06-7.54-42.79-6.94-1.37,.06-3.09-.22-3.61,1.33-.54,1.59,.55,2.91,1.81,3.9,6.64,5.2,13.93,9.55,21.56,12.85,12.5,5.41,24.15,12.45,36.66,17.81,4,1.71,5.52,4.85,4.44,9.76-1.25,5.66-4.5,10.3-6.33,15.63-2.77,8.09-.99,13.75,6.71,16.76,4.36,1.71,9.02,2.68,13.81,3.08,13.29,1.12,25.56-4.03,38.33-6.03,15.69-2.46,31.13-2.18,46.25,2.43,17.93,5.47,36.13,8.83,54.88,9.05,7.5,.09,14.97-.72,22.31-2.02,8.69-1.55,17.23-3.87,24.88-8.73,6-3.81,8.82-9.23,7.11-14.82-1.73-5.67-1.19-7.58,3.75-10.8,2.41-1.57,5.08-2.78,7.74-3.91,9.61-4.08,19.86-5.97,29.9-8.59,14.88-3.88,30.27-5.89,44.53-12.08,3.77-1.64,7.99-3.68,8.19-7.68,.24-4.83-4.71-6.63-8.52-8.61-.4-.21-.9-.2-1.33-.36-11.51-4.17-23.5-3.47-35.41-3.47Zm-153.3,100.6c3.44,1.05,6.68-.1,9.92-.68,20.47-3.62,40.89-5.27,61.34,.19,3.52,.94,7.19,1.35,10.81,1.92,1.04,.16,2.41,.32,2.92-.77,.71-1.52-.98-1.97-1.78-2.72-.53-.49-1.35-.67-2.04-1-9.43-4.41-19.31-6.4-29.76-6.43-10-.04-19.84,1.1-29.58,3.06-7.41,1.49-14.93,2.82-21.84,6.42Zm-149.73-81.03c2.03,.49,3.27,.6,3.8-.51,.72-1.49-.68-2.34-1.66-2.81-2.33-1.13-4.72-2.27-7.22-2.84-6.99-1.57-13.17-4.74-19.11-8.6-1.21-.79-2.78-3.16-4.21-1.28-1.24,1.62,.72,3.32,1.92,4.67,.6,.68,1.36,1.23,2.1,1.77,7.53,5.61,15.97,8.9,24.38,9.6Zm27.12,68.86c-1.29-2.13-2.96-1.83-4.36-1.48-3.93,.98-7.91,.58-11.86,.57-5.46-.01-6.55-1.87-5.03-7.24,.77-2.7,2.89-4.97,2.9-8.87-4.43,3.32-6.92,6.97-7.99,11.52-.69,2.93,.85,4.79,3.71,5.22,3.61,.53,7.26,1.01,10.9,1.05,3.82,.04,7.79,.76,11.72-.77Z"/>
  <path class="cls-1" d="M417.31,359.13c-7.42,.79-14.68,.26-21.23-3.74-5.32-3.25-6.17-6.65-2.99-10.59-.78,5.27,2.02,8,6.96,9.11,5.16,1.16,9.86-1.32,14.39-3.57,1.56-.78,2.84-1.97,2.59-3.94-.24-1.88-1.77-2.52-3.24-3.46-3.25-2.09-7.18-.93-10.45-2.58,8.08-.28,16.14-.45,23.86,2.57,.85,.33,1.73,.59,2.54,1,2.57,1.32,5.69,2.48,4.77,6.23-.9,3.66-4.18,5.09-7.34,6.21-1.77,.62-7.97,2.57-9.87,2.77Z"/>
  <path class="cls-1" d="M120.36,390.07c-7.18,5.19-19.07,5.45-26.56,.78-4.55-2.84-5.94-6.86-3.8-11.02,.07,4.18,1.45,7.36,5.99,8.43,4.42,1.04,8.1-.71,11.35-3.2,4.23-3.24,3.51-6.09-1.59-8.08-3.42-1.33-6.94-.5-10.4-.82,9.29-3.5,17.95-1.09,26.27,3.11,2.86,1.45,.4,9.59-1.28,10.8Z"/>
  <path class="cls-6" d="M403.35,340.35c3.27,1.64,7.19,.49,10.45,2.58,1.47,.94,3,1.58,3.24,3.46,.25,1.97-1.02,3.17-2.59,3.94-4.53,2.25-9.23,4.73-14.39,3.57-4.94-1.11-7.74-3.84-6.96-9.11,0,0,0,.08,0,.08,.32-.39,.64-.79,.96-1.18,2.51-2.75,5.95-2.93,9.3-3.35Z"/>
  <path class="cls-1" d="M51.42,234.44c5.5-.41,10.61,.5,14.99,4.17,3.15,2.63,3.32,5.74,1.27,8.94-4.26,6.62-16.32,7.78-21.78,2.13-2.71-2.8-4.06-6.03-1.97-9.86,.51,6.42,3.3,9.53,7.6,8.11,3.25-1.07,6.46-3.29,6.84-6.62,.33-2.88-2.73-4.75-5.44-5.98-.53-.24-1.01-.59-1.51-.89Zm12.81,12.8c2.01-.16,2.96-1.32,3.48-3.47-2.25,.57-3.16,1.75-3.47,3.48-.44,.36-.87,.73-1.31,1.09,.17,.11,.4,.34,.51,.3,.6-.25,.86-.74,.78-1.4Zm-3.26,2.42c-.03-.1-.03-.24-.09-.27-.11-.06-.25-.05-.39-.07,.03,.15,.07,.31,.1,.46,.12-.04,.25-.08,.37-.12Z"/>
  <path class="cls-6" d="M95.36,376.16c3.46,.32,6.98-.52,10.4,.82,5.1,1.99,5.82,4.83,1.59,8.08-3.26,2.5-6.94,4.25-11.35,3.2-4.54-1.07-5.92-4.25-5.99-8.43,0,0-.02,.06-.02,.06,.32-.38,.64-.76,.96-1.13,.99-1.69,2.29-2.85,4.42-2.6Z"/>
  <path class="cls-6" d="M51.42,234.44c.5,.3,.98,.65,1.51,.89,2.72,1.23,5.78,3.11,5.44,5.98-.38,3.33-3.59,5.55-6.84,6.62-4.3,1.41-7.09-1.69-7.6-8.11,0,0-.02,.07-.02,.07,.84-.39,.95-1.15,.97-1.95,1.39-2.65,3.94-3.11,6.54-3.5Z"/>
  <path class="cls-1" d="M44.88,237.94c-.02,.8-.13,1.55-.97,1.95,.01-.8,.23-1.5,.97-1.95Z"/>
  <path class="cls-1" d="M394.05,343.7c-.32,.39-.64,.79-.96,1.18,.32-.39,.64-.79,.96-1.18Z"/>
  <path class="cls-1" d="M90.94,378.75c-.32,.38-.64,.76-.96,1.13,.32-.38,.64-.76,.96-1.13Z"/>
  <path class="cls-6" d="M377.7,272.12c11.92,0,23.9-.71,35.41,3.47,.43,.16,.93,.15,1.33,.36,3.8,1.98,8.76,3.78,8.52,8.61-.2,4-4.42,6.04-8.19,7.68-14.27,6.19-29.65,8.2-44.53,12.08-10.04,2.62-20.29,4.51-29.9,8.59-2.66,1.13-5.33,2.34-7.74,3.91-4.93,3.21-5.48,5.13-3.75,10.8,1.71,5.59-1.11,11-7.11,14.82-7.65,4.86-16.19,7.18-24.88,8.73-7.33,1.31-14.81,2.11-22.31,2.02-18.75-.22-36.95-3.58-54.88-9.05-15.12-4.61-30.56-4.89-46.25-2.43-12.77,2-25.03,7.15-38.33,6.03-4.79-.4-9.45-1.38-13.81-3.08-7.7-3.01-9.48-8.67-6.71-16.76,1.83-5.33,5.08-9.97,6.33-15.63,1.08-4.91-.44-8.05-4.44-9.76-12.5-5.36-24.16-12.4-36.66-17.81-7.63-3.3-14.92-7.65-21.56-12.85-1.26-.99-2.35-2.31-1.81-3.9,.53-1.55,2.24-1.27,3.61-1.33,14.73-.6,28.74,3.5,42.79,6.94,18.07,4.42,36.07,9.25,54.46,12.08,9.25,1.42,18.69,3.79,28.16,1.21,8.14-2.22,13.26-3.68,13.4-16,.09-8.17-1.39-16.09-2.64-24.06-1.03-6.58,2.32-11.11,9.05-11.49,8.7-.49,16.97,1.71,25.23,3.94,18.12,4.88,35.72,11.71,54.34,14.72,9.35,1.51,18.59,1.1,27.59-2.07,5.62-1.98,11.3-3.67,17.24-4.5,5.04-.71,9.88,.47,14.34,2.29,5.53,2.26,7.03,9.01,4.05,14.99-2.39,4.79-1.46,5.94,3.96,6.63,8.56,1.09,17.12,.74,25.68,.85Z"/>
  <path class="cls-5" d="M64.25,247.26c.31-1.74,1.22-2.91,3.47-3.48-.53,2.15-1.47,3.31-3.48,3.47h.01Z"/>
  <path class="cls-5" d="M64.23,247.25c.08,.66-.18,1.15-.78,1.4-.11,.05-.34-.19-.51-.3,.44-.36,.87-.73,1.31-1.09,0,0-.01-.01-.01-.01Z"/>
  <path class="cls-5" d="M60.97,249.66c-.12,.04-.25,.08-.37,.12-.03-.15-.07-.31-.1-.46,.13,.02,.28,.01,.39,.07,.06,.03,.06,.18,.09,.27Z"/>
  <g>
    <g>
      <path class="cls-2" d="M235.93,148.15c-.02-7.74-1.86-15.71-10-18.98-8.19-3.29-16.1-.82-22.21,5.3-4.03,4.04-8.34,5.25-13.77,5.27-13.55,.05-22.76,7.62-25.07,21.01-1.69,9.8-6.54,16.05-15.84,20-4.84,2.06-9.27,6.23-12.56,10.48-.05,.06-.09,.1-.13,.16-.74,1.95-1.64,3.81-2.2,5.9-.15,.56-.3,1.13-.42,1.71-.01,.51-.06,1.02-.16,1.53-.24,1.26,.26,2.93,.21,4.24-.01,.27-.06,.52-.1,.78,.52,5.2-.34,10.76-.21,15.98,.06,2.44-1.22,5.4-2.83,7.32-10.34,12.35-11.57,23.68-2.19,36.7,5.12,7.11,5.98,13.85,3.69,22-3.76,13.4,.68,21.99,13.71,26.38,6.77,2.28,10.35,6.14,12.09,13.13,2.21,8.85,7.84,16.4,17.51,16.18,9.64-.22,16.56,3.5,24.04,8.57,16.95,11.5,36.27,1.77,36.39-18.57,.37-61.68,.22-123.37,.04-185.05Zm-30.8-6.81c2.5,5.2,5.07,10.53,7.79,16.19-9.03-.31-12.74-8.07-7.79-16.19Zm-41.02,35.73c2.22,2.99,3.29,4.43,4.37,5.88,.51-.11,1.02-.22,1.52-.33-.48-2.82-.95-5.63-1.43-8.45,.51-.33,1.01-.67,1.52-1,1.33,2.25,3.98,4.75,3.63,6.7-.41,2.23-3.2,4.56-5.53,5.7-1.25,.62-4.17-.71-5.39-2.03-.68-.73,.58-3.26,1.3-6.47Zm-11.86,15.24c3.9,3.01,6.28,2.62,9.95-.78,3.83-3.54,9.43-5.11,13.49-8.47,6.77-5.59,6.51-9.84-.35-15.23-3.94-3.09-5.26-6.7-2.25-10.69,3.35-4.45,6.77-1.74,10.04,.76,6.05,4.62,11.05,4.06,12.98-1.52,.48-1.38,.22-3.29-.34-4.7-.65-1.66-1.99-3.04-3.03-4.54,1.8-.79,3.61-1.57,7.73-3.37-4.38,7.8,7.55,14.35-2.31,19.77-9.56,5.25-13.19,3.96-23.69-5.08,1.26,2.09,2.25,4.41,3.84,6.21,2.1,2.38,6.95,4.82,6.62,6.41-1.28,6.19-1.24,13.56-8.2,17.12-2.14,1.1-4.6,1.57-6.77,2.63-1.66,.81-4.05,1.8-4.48,3.21-2.54,8.21-6.88,5.63-11.56,2.35-1.33-.93-2.76-1.75-4.14-2.61-.45,.56-.91,1.12-1.36,1.68l10.35,8.07c-.16,.38-.33,.75-.49,1.13-3.74-1.85-7.81-3.26-11.08-5.74-1.35-1.02-.98-4.32-1.39-6.58,2.2-.06,5.11-1.05,6.45-.01Zm42.12-24.52c-3.64,8.59-4.32,19.07-14.69,23.08,2.57-5.2,4.93-10.51,7.77-15.56,1.65-2.93,4.11-5.4,6.91-7.52Zm-15.15,23.37c-3.97,3.62-7.96,7.25-13.04,11.88,1.75-8.83,6.54-11.47,13.04-11.88Zm50.15-26.88c-3.29,7.58-6.49,14.96-9.71,22.37,3.62,1.49,10.92-2.55,10.65,6.8-3.65-.51-7.06-.99-12.42-1.74q7.35,4.11,12.03,18.07l-1.44,1.3c-1.38-1.87-2.6-3.89-4.18-5.58-1.95-2.08-3.91-4.98-6.36-5.6-7.02-1.79-7.12-1.41-8.96-8.32-4.94,3.67-4.99,7.72-.15,10.51,8.61,4.96,12.52,11.52,11.49,21.65-.26,2.55,2.51,6.87,4.96,7.94,5,2.2,5.68,5.38,4.85,9.86h-.08c-1.51,1.68-2.78,4.49-4.57,4.86-11.86,2.45-21.27-6.67-19.75-18.75,.3-2.42,1.58-5.02,1-7.16-.61-2.23-2.59-4.56-4.62-5.73-1.17-.68-3.92,.38-5.43,1.43-5.31,3.67-12.39,5.97-12.64,14.1-.11,3.58,.28,7.17,.44,10.76,.75,.09,1.5,.18,2.25,.28,1.08-1.43,1.96-3.09,3.27-4.25,3.36-2.97,7.59-3.26,8.98,1.17,4.91,15.62,16.84,17.83,30.88,17.11,.83,5.64-3,6.74-6.93,7.21-12.49,1.52-24.74-7.69-28.82-21.44-.63,.08-1.26,.16-1.89,.25,.42,3.24-.04,6.99,1.49,9.57,1.89,3.2,5.14,5.86,8.32,7.97,10.6,7.02,12.91,13.27,8.77,25.43-.29,.84-.54,1.69-.2,2.7,7.41-5.62,5.14-13.47,4.34-21.39,4.94-.39,9.68-.76,14.41-1.13,.49,.51,.98,1.03,1.47,1.54-1.76,1.52-3.33,3.97-5.31,4.37-4.4,.89-6.31,2.98-6.48,7.39-.17,4.33,2.03,6.11,5.88,6.99,1.87,.43,3.58,1.58,4.9,3.97h-10.7c4.28,4.22,12.94,2.92,10.96,11.4-4.1-2.86-7.92-5.75-11.99-8.25-1.79-1.1-4.1-2.02-6.14-1.96-5.99,.18-9.28-2.34-7.63-8.34,2.59-9.41-.45-15.4-8.25-20.34-2.54-1.61-3.97-4.89-6.16-7.17-1.09-1.13-2.75-1.72-4.16-2.55-.42,.51-.84,1.03-1.27,1.54,1.35,2.19,2.62,4.43,4.07,6.56,4.47,6.56,6.05,12.98,1.31,20.42-1.4,2.2-.39,6.2,.12,9.28,.45,2.74,1.72,5.35,2.85,8.64,3.25-1.26,6.98-2.81,10.77-4.15,7.49-2.63,14.72-.7,19.16,4.96,4.52,5.76,4.86,13.31,.46,19.71-3.42,4.98-4.57,8.8,2.97,10.75,1.57,.4,3.9,2.33,3.86,3.47-.07,1.81-1.45,4.1-2.98,5.23-6.01,4.39-15.34,3.4-20.24-1.79-4.36-4.62-3.78-9.81,1.61-17.07,1.71-2.31,3.53-4.86,4.1-7.56,.32-1.52-1.39-4.16-2.93-5.17-1.29-.85-3.65-.07-5.54-.02,.05,1.17,.09,2.33,.14,3.5l-.2-.19c-.03,.22-.09,.43-.12,.65,.05-.07,.09-.13,.14-.2,.11,3.11,.9,6.47-.08,9.19-2.73,7.62-10.78,11.75-20.27,11.33-7.35-.33-15.34-5.79-16.54-13.16-.58-3.57,2.43-7.71,3.74-11.61,.9-2.68,1.69-5.41,2.54-8.11-3.2,.67-6.65,.82-9.54,2.16-2.53,1.17-4.16,4.6-6.69,5.36-2.89,.87-6.65,.57-9.39-.65-1.06-.47-.44-4.87-.46-7.48-.02-2.13,.28-4.28,.19-6.4-.21-4.96-.57-9.92-.94-16.16-3.77-4.86-9.36-10.99-13.7-17.91-5.69-9.09-1.47-17.28,8.84-20.24,5.21-1.49,9.93-4.61,14.96-6.79,3.5-1.52,7.16-2.69,10.74-4.01-.49,3.39-.34,7.04-1.59,10.12-2.7,6.65-1.38,11.95,3.97,16.39,.75,.62,2.03,.62,3.82-.16-1.49-1.67-4.02-3.22-4.25-5.04-.49-3.99-.03-8.15,.44-12.19,.45-3.83,1.4-7.6,2.13-11.39-3.92,.04-7.91-.39-11.73,.22-5.45,.87-10.74,2.84-16.2,3.56-1.48,.2-3.33-2.42-5.01-3.74,1.85-.28,3.69-.79,5.54-.8,3.09-.01,6.18,.3,9.28,.21-6.01-1.9-12.74-2.52-14.68-10.96,9.89,5.36,19.22,3.8,28.26-.9,1.69-.88,3.66-2.67,4.03-4.36,1.51-6.94,5.74-8.2,11.46-5.78,4.83,2.04,7.15,.61,8.88-4.06,1.81-4.87,5.44-8.93,2.66-15-1.84-4.02-1.43-9.03,3.69-11.33,5.63-2.52,7.01,2.49,9.27,5.78,.25,.36,.8,.51,2.96,1.8,1.87-3.98,4.68-7.66,5.24-11.66,.91-6.44,2.39-11.53,10.73-11.81-.21-.65-.42-1.29-.63-1.94-2.54-.65-5.14-1.12-7.61-1.98-4.76-1.65-8.31-4.63-7.92-10.13,.35-4.95,3.8-7.56,8.44-7.35,2.02,.09,4.5,2.07,5.78,3.89,1.79,2.54,2.65,5.73,3.87,8.55-8.2,1.47-10.21-.11-11.72-9.27-.65,2.14-2.49,5.28-1.71,6.23,2.08,2.51,5.07,5.1,8.12,5.81,6.71,1.55,9.56,4.16,7,9.38-1.17,2.39-4.92,3.52-8.2,5.68,2.69,.31,5.38,.61,7.56,.86Z"/>
      <path class="cls-2" d="M198.33,317.45c-3.64,2.76-7.94,6.28-12.01,6.34-3.23,.05-7.47-4.05-9.42-7.39-1.04-1.77,1.84-5.83,2.96-8.86,4,7.82,5.45,8.13,13.11,3.17-5.07-2.8-6.36-5.31-6.35-11.35,0-2.14,.08-4.96-1.14-6.31-4.27-4.7-2.29-8.55,.19-13.17,5.17-9.65,.36-20.98-10.44-23.81,2.68,3.61,5.25,6.47,7.14,9.73,4.28,7.37,.25,19-6.46,20.22-6.33,1.14-12.53,2.99-20.42,4.93-2.71-2.66-2.78-6.67,1.82-11.33,7.06-7.16,5.39-16.99-3.88-20.71,1.4,2.82,3.36,5.07,3.49,7.43,.21,3.84,.49,8.61-1.47,11.47-7,10.22-7.35,10.06,.66,19.15-1.15,1.54-2.35,3.14-3.55,4.73l1.83,1.48c2.76-3.27,5.12-7.03,8.38-9.68,2.92-2.37,7.16-5.32,10.22-4.76,3.65,.66,8,4.21,9.51,7.62,1.03,2.34-2.11,6.67-3.71,9.96-.6,1.23-2.15,1.96-3.15,3.03-5.35,5.72-4.45,10.92,2.52,14.78,12.14,6.72,23.32,.65,25.7-13.78-1.77,2.48-3.22,5.36-5.54,7.12Z"/>
      <path class="cls-2" d="M230.1,241.54c-15.49-1.56-18.16-4.85-16.81-20.67,.12-1.46,.65-3.19,.08-4.33-1.05-2.11-2.4-4.89-4.31-5.61-5.32-2.03-10.15-4.24-10.61-10.64-.51-7.04,4.29-10.27,9.92-12.96,6.47-3.1,10.14-8.4,10.77-15.69-1.63,1.02-2.58,2.56-3.78,3.87-3.04,3.3-6.19,6.5-9.3,9.74-2.81-2.89-5.62-5.77-8.42-8.66-.51,.04-1.01,.09-1.52,.13,1.35,3.74,2.71,7.48,3.92,10.82-1.69,3.59-3.92,7.31-5.25,11.33-2.97,8.94-6.21,10.65-15.36,7.46-.97-.34-2.07-.27-4.85-.59,8.13,7.55,14.69,4.22,20.62,1.1,3.63,1.99,7.12,3.32,9.83,5.59,2.23,1.87,4.31,4.66,5.02,7.41,.69,2.64-.61,5.75-.78,8.68-.4,6.88,3.38,12.34,9.87,13.36,3.53,.55,7.26-.19,10.9-.34,0,0,.08,0,.06,0Z"/>
      <path class="cls-2" d="M165.18,267.9c-1.77,2.74-1.69,7.9-.33,11.13,2.05,4.9,6.57,3.02,9.96,.87,5.54-3.5,5.87-10.69,.84-17.38-3.92,1.86-8.7,2.64-10.46,5.38Z"/>
      <path class="cls-2" d="M202.78,301.38c5.87-.69,10.75,.92,13.47,6.46,2.66,5.43,.49,9.87-3.6,13.69-.89,.83-1.67,1.78-2.43,2.73-4.72,5.94-3.08,10.49,4.4,11.82,2.2,.39,4.52,.06,8.91,.06-14.24-3.64-15-5.96-7.07-15.67,6.19-7.58,5.77-15.71-1.75-18.97-4.28-1.86-9.47-1.66-14.25-2.38-.06,.76-.12,1.51-.18,2.27,.83,0,1.68,.08,2.5-.01Z"/>
      <path class="cls-2" d="M177.84,223.6c.94,2.77-1.31,6.85-2.7,10.12-3.3,7.8-1.81,12.75,6.85,15.58-6.82-7.28-4.1-13.24-1.98-19.68,1.11-3.39,.92-8.37-.89-11.22-1.65-2.6-6.3-3.29-10.22-5.09,3.73,4.06,7.73,6.7,8.94,10.29Z"/>
      <path class="cls-2" d="M162.61,228.49c-3.64,4.55-7.35,9.44-7.08,14.1,.45,7.75,4.47,14.59,12.83,17.53-8.31-9.32-13.93-18.8-5.75-31.63Z"/>
      <path class="cls-2" d="M145.52,242.98c-7.98-.05-12.96,4.56-9.77,9.64,3.11,4.95,7.94,8.82,12.01,13.16,.69-.68,1.38-1.35,2.06-2.03-2.32-2.5-4.55-5.09-6.97-7.49-6.68-6.61-5.97-10.3,2.67-13.29Z"/>
    </g>
    <g>
      <path class="cls-3" d="M179.68,190.88c10.36-4.01,11.04-14.49,14.69-23.08-2.8,2.12-5.26,4.6-6.91,7.52-2.84,5.05-5.2,10.36-7.77,15.56Z"/>
      <path class="cls-3" d="M166.17,203.04c5.08-4.63,9.07-8.26,13.04-11.88-6.5,.41-11.3,3.04-13.04,11.88Z"/>
      <path class="cls-3" d="M212.92,157.53c-2.73-5.66-5.29-10.99-7.79-16.19-4.95,8.11-1.24,15.87,7.79,16.19Z"/>
      <path class="cls-3" d="M168.2,185.57c2.32-1.14,5.12-3.46,5.53-5.7,.36-1.95-2.3-4.45-3.63-6.7-.51,.33-1.01,.67-1.52,1,.48,2.82,.95,5.63,1.43,8.45-.51,.11-1.02,.22-1.52,.33-1.08-1.45-2.15-2.9-4.37-5.88-.72,3.21-1.98,5.74-1.3,6.47,1.22,1.32,4.13,2.64,5.39,2.03Z"/>
      <path class="cls-3" d="M158.26,204.64c.16-.38,.33-.75,.49-1.13l-10.35-8.07c.45-.56,.91-1.12,1.36-1.68,1.38,.87,2.8,1.68,4.14,2.61,4.68,3.28,9.02,5.86,11.56-2.35,.44-1.41,2.82-2.4,4.48-3.21,2.17-1.06,4.63-1.53,6.77-2.63,6.96-3.56,6.92-10.93,8.2-17.12,.33-1.59-4.52-4.03-6.62-6.41-1.59-1.8-2.58-4.12-3.84-6.21,10.5,9.04,14.13,10.34,23.69,5.08,9.86-5.42-2.07-11.97,2.31-19.77-4.12,1.8-5.92,2.58-7.73,3.37,1.04,1.5,2.38,2.89,3.03,4.54,.55,1.42,.82,3.32,.34,4.7-1.94,5.57-6.94,6.14-12.98,1.52-3.27-2.5-6.69-5.21-10.04-.76-3,3.99-1.68,7.6,2.25,10.69,6.86,5.39,7.12,9.64,.35,15.23-4.06,3.36-9.66,4.93-13.49,8.47-3.67,3.4-6.05,3.79-9.95,.78-1.35-1.04-4.26-.05-6.45,.01,.41,2.26,.04,5.55,1.39,6.58,3.26,2.48,7.33,3.9,11.08,5.74Z"/>
      <path class="cls-3" d="M229.99,157.75c2.56-5.22-.29-7.83-7-9.38-3.05-.71-6.04-3.3-8.12-5.81-.79-.95,1.06-4.09,1.71-6.23,1.51,9.16,3.52,10.75,11.72,9.27-1.22-2.82-2.08-6.01-3.87-8.55-1.28-1.82-3.76-3.8-5.78-3.89-4.64-.2-8.09,2.4-8.44,7.35-.39,5.5,3.16,8.48,7.92,10.13,2.47,.86,5.07,1.33,7.61,1.98,.21,.65,.42,1.29,.63,1.94-8.34,.28-9.82,5.37-10.73,11.81-.56,4-3.37,7.69-5.24,11.66-2.16-1.29-2.71-1.44-2.96-1.8-2.26-3.3-3.63-8.3-9.27-5.78-5.13,2.29-5.53,7.31-3.69,11.33,2.78,6.07-.86,10.13-2.66,15-1.73,4.67-4.05,6.1-8.88,4.06-5.72-2.42-9.95-1.16-11.46,5.78-.37,1.69-2.34,3.48-4.03,4.36-9.04,4.7-18.37,6.27-28.26,.9,1.95,8.44,8.67,9.06,14.68,10.96-3.1,.09-6.19-.22-9.28-.21-1.85,0-3.69,.51-5.54,.8,1.68,1.32,3.53,3.94,5.01,3.74,5.46-.72,10.75-2.69,16.2-3.56,3.83-.61,7.82-.18,11.73-.22-.73,3.79-1.68,7.56-2.13,11.39-.47,4.04-.94,8.2-.44,12.19,.23,1.83,2.76,3.37,4.25,5.04-1.79,.78-3.07,.78-3.82,.16-5.36-4.44-6.67-9.74-3.97-16.39,1.25-3.08,1.1-6.73,1.59-10.12-3.59,1.32-7.24,2.49-10.74,4.01-5.03,2.18-9.76,5.29-14.96,6.79-10.31,2.96-14.54,11.15-8.84,20.24,4.33,6.92,9.93,13.05,13.7,17.91,.37,6.23,.73,11.19,.94,16.16,.09,2.13-.21,4.27-.19,6.4,.02,2.61-.6,7.01,.46,7.48,2.74,1.22,6.5,1.51,9.39,.65,2.53-.76,4.16-4.19,6.69-5.36,2.89-1.34,6.33-1.49,9.54-2.16-.84,2.71-1.63,5.43-2.54,8.11-1.32,3.9-4.32,8.04-3.74,11.61,1.2,7.37,9.19,12.83,16.54,13.16,9.49,.42,17.53-3.71,20.27-11.33,.98-2.72,.19-6.08,.08-9.19-.05,.07-.09,.13-.14,.2-2.39,14.44-13.56,20.51-25.7,13.78-6.97-3.86-7.88-9.06-2.52-14.78,1-1.07,2.56-1.8,3.15-3.03,1.59-3.29,4.74-7.62,3.71-9.96-1.51-3.42-5.86-6.96-9.51-7.62-3.07-.56-7.3,2.38-10.22,4.76-3.26,2.65-5.63,6.4-8.38,9.68l-1.83-1.48c1.2-1.6,2.39-3.19,3.55-4.73-8.01-9.08-7.66-8.93-.66-19.15,1.96-2.86,1.69-7.63,1.47-11.47-.13-2.35-2.09-4.61-3.49-7.43,9.27,3.72,10.94,13.55,3.88,20.71-4.59,4.66-4.52,8.67-1.82,11.33,7.89-1.94,14.09-3.79,20.42-4.93,6.71-1.21,10.74-12.85,6.46-20.22-1.89-3.25-4.46-6.12-7.14-9.73,10.8,2.84,15.61,14.16,10.44,23.81-2.48,4.63-4.46,8.47-.19,13.17,1.23,1.35,1.15,4.17,1.14,6.31-.01,6.04,1.28,8.55,6.35,11.35-7.66,4.96-9.11,4.65-13.11-3.17-1.11,3.03-3.99,7.08-2.96,8.86,1.95,3.34,6.19,7.44,9.42,7.39,4.07-.06,8.37-3.58,12.01-6.34,2.31-1.76,3.77-4.64,5.54-7.12,.04-.22,.09-.42,.12-.65l.2,.19c-.05-1.17-.09-2.33-.14-3.5,1.89-.06,4.25-.83,5.54,.02,1.54,1.01,3.25,3.65,2.93,5.17-.57,2.7-2.39,5.25-4.1,7.56-5.39,7.26-5.97,12.46-1.61,17.07,4.9,5.19,14.22,6.18,20.24,1.79,1.53-1.12,2.91-3.42,2.98-5.23,.05-1.14-2.29-3.07-3.86-3.47-7.55-1.94-6.39-5.76-2.97-10.75,4.4-6.41,4.06-13.95-.46-19.71-4.45-5.66-11.68-7.59-19.16-4.96-3.8,1.33-7.52,2.89-10.77,4.15-1.12-3.3-2.4-5.9-2.85-8.64-.5-3.08-1.52-7.08-.12-9.28,4.75-7.44,3.17-13.86-1.31-20.42-1.45-2.12-2.72-4.37-4.07-6.56,.42-.51,.84-1.03,1.27-1.54,1.4,.83,3.06,1.42,4.16,2.55,2.19,2.27,3.62,5.56,6.16,7.17,7.8,4.94,10.83,10.94,8.25,20.34-1.65,5.99,1.65,8.52,7.63,8.34,2.04-.06,4.35,.85,6.14,1.96,4.07,2.5,7.89,5.4,11.99,8.25,1.98-8.48-6.67-7.18-10.96-11.4h10.7c-1.32-2.39-3.03-3.54-4.9-3.97-3.86-.88-6.05-2.66-5.88-6.99,.18-4.4,2.09-6.5,6.48-7.39,1.98-.4,3.56-2.85,5.31-4.37-.49-.51-.98-1.03-1.47-1.54-4.73,.37-9.47,.74-14.41,1.13,.8,7.92,3.07,15.77-4.34,21.39-.34-1.01-.09-1.86,.2-2.7,4.15-12.15,1.83-18.4-8.77-25.43-3.18-2.11-6.43-4.78-8.32-7.97-1.53-2.58-1.07-6.34-1.49-9.57,.63-.08,1.26-.16,1.89-.25,4.08,13.75,16.32,22.96,28.82,21.44,3.93-.48,7.76-1.58,6.93-7.21-14.05,.72-25.97-1.49-30.88-17.11-1.4-4.44-5.63-4.14-8.98-1.17-1.32,1.16-2.2,2.82-3.27,4.25-.75-.09-1.5-.18-2.25-.28-.16-3.59-.55-7.18-.44-10.76,.25-8.13,7.33-10.44,12.64-14.1,1.51-1.04,4.26-2.11,5.43-1.43,2.03,1.18,4.01,3.51,4.62,5.73,.58,2.13-.69,4.74-1,7.16-1.52,12.08,7.89,21.2,19.75,18.75,1.78-.37,3.06-3.18,4.57-4.86-3.64,.16-7.37,.89-10.9,.34-6.5-1.02-10.28-6.48-9.87-13.36,.17-2.92,1.47-6.03,.78-8.68-.71-2.75-2.79-5.53-5.02-7.41-2.71-2.27-6.2-3.59-9.83-5.59-5.93,3.12-12.49,6.44-20.62-1.1,2.78,.32,3.88,.26,4.85,.59,9.15,3.19,12.39,1.47,15.36-7.46,1.34-4.02,3.56-7.74,5.25-11.33-1.21-3.35-2.56-7.09-3.92-10.82,.51-.04,1.01-.09,1.52-.13,2.81,2.89,5.62,5.77,8.42,8.66,3.11-3.24,6.26-6.44,9.3-9.74,1.2-1.31,2.15-2.85,3.78-3.87-.63,7.3-4.29,12.6-10.77,15.69-5.62,2.69-10.43,5.92-9.92,12.96,.46,6.4,5.29,8.61,10.61,10.64,1.9,.73,3.25,3.5,4.31,5.61,.57,1.15,.04,2.88-.08,4.33-1.35,15.82,1.32,19.11,16.81,20.67,.02,0-.06,0-.06,0h.08c.83-4.48,.15-7.66-4.85-9.86-2.45-1.08-5.22-5.39-4.96-7.94,1.03-10.12-2.88-16.69-11.49-21.65-4.83-2.78-4.79-6.83,.15-10.51,1.85,6.91,1.94,6.53,8.96,8.32,2.45,.62,4.41,3.52,6.36,5.6,1.58,1.69,2.8,3.71,4.18,5.58l1.44-1.3q-4.68-13.96-12.03-18.07c5.35,.75,8.77,1.23,12.42,1.74,.27-9.35-7.03-5.3-10.65-6.8,3.22-7.42,6.42-14.79,9.71-22.37-2.18-.25-4.88-.56-7.56-.86,3.28-2.16,7.03-3.29,8.2-5.68Zm-82.23,108.03c-4.07-4.34-8.9-8.21-12.01-13.16-3.19-5.08,1.79-9.69,9.77-9.64-8.64,2.99-9.35,6.68-2.67,13.29,2.42,2.39,4.65,4.98,6.97,7.49-.69,.68-1.38,1.35-2.06,2.03Zm52.69,33.35c4.78,.72,9.97,.52,14.25,2.38,7.51,3.27,7.94,11.39,1.75,18.97-7.92,9.71-7.16,12.03,7.07,15.67-4.39,0-6.72,.33-8.91-.06-7.48-1.33-9.12-5.88-4.4-11.82,.76-.95,1.54-1.9,2.43-2.73,4.09-3.82,6.26-8.26,3.6-13.69-2.72-5.54-7.6-7.16-13.47-6.46-.82,.1-1.67,.01-2.5,.01,.06-.76,.12-1.51,.18-2.27Zm-44.92-56.54c-.27-4.66,3.44-9.55,7.08-14.1-8.18,12.83-2.56,22.31,5.75,31.63-8.37-2.94-12.39-9.78-12.83-17.53Zm20.12,19.93c5.03,6.69,4.71,13.88-.84,17.38-3.39,2.14-7.91,4.03-9.96-.87-1.35-3.23-1.44-8.4,.33-11.13,1.76-2.73,6.54-3.52,10.46-5.38Zm3.47-44.12c1.82,2.85,2.01,7.83,.89,11.22-2.12,6.44-4.84,12.4,1.98,19.68-8.67-2.83-10.16-7.79-6.85-15.58,1.38-3.27,3.63-7.35,2.7-10.12-1.21-3.58-5.21-6.22-8.94-10.29,3.92,1.8,8.57,2.5,10.22,5.09Z"/>
    </g>
  </g>
  <g>
    <g>
      <path class="cls-2" d="M245.17,333.2c.12,20.34,19.44,30.07,36.39,18.57,7.48-5.07,14.41-8.79,24.04-8.57,9.68,.22,15.3-7.33,17.51-16.18,1.75-6.99,5.32-10.85,12.09-13.13,13.03-4.38,17.47-12.98,13.71-26.38-2.29-8.14-1.43-14.88,3.69-22,9.38-13.03,8.15-24.36-2.19-36.7-1.61-1.92-2.89-4.88-2.83-7.32,.13-5.22-.73-10.78-.21-15.98-.03-.26-.09-.5-.1-.78-.05-1.31,.45-2.98,.21-4.24-.1-.51-.15-1.02-.16-1.53-.13-.57-.27-1.14-.42-1.71-.56-2.08-1.47-3.94-2.2-5.9-.05-.06-.09-.1-.13-.16-3.29-4.24-7.71-8.42-12.56-10.48-9.3-3.95-14.16-10.2-15.84-20-2.31-13.38-11.52-20.96-25.07-21.01-5.43-.02-9.74-1.23-13.77-5.27-6.11-6.12-14.02-8.59-22.21-5.3-8.13,3.27-9.97,11.25-10,18.98-.18,61.68-.33,123.37,.04,185.05Zm22.97-175.68c2.73-5.66,5.29-10.99,7.79-16.19,4.95,8.11,1.24,15.87-7.79,16.19Zm50.11,26.02c-1.22,1.32-4.13,2.64-5.39,2.03-2.32-1.14-5.12-3.46-5.53-5.7-.36-1.95,2.3-4.45,3.63-6.7,.51,.33,1.01,.67,1.52,1-.48,2.82-.95,5.63-1.43,8.45,.51,.11,1.02,.22,1.52,.33,1.08-1.45,2.15-2.9,4.37-5.88,.72,3.21,1.98,5.74,1.3,6.47Zm17.01,8.78c-.41,2.26-.04,5.55-1.39,6.58-3.26,2.48-7.33,3.9-11.08,5.74-.16-.38-.33-.75-.49-1.13l10.35-8.07c-.45-.56-.91-1.12-1.36-1.68-1.38,.87-2.8,1.68-4.14,2.61-4.68,3.28-9.02,5.86-11.56-2.35-.44-1.41-2.82-2.4-4.48-3.21-2.17-1.06-4.63-1.53-6.77-2.63-6.96-3.56-6.92-10.93-8.2-17.12-.33-1.59,4.52-4.03,6.62-6.41,1.59-1.8,2.58-4.12,3.84-6.21-10.5,9.04-14.13,10.34-23.69,5.08-9.86-5.42,2.07-11.97-2.31-19.77,4.12,1.8,5.92,2.58,7.73,3.37-1.04,1.5-2.38,2.89-3.03,4.54-.55,1.42-.82,3.32-.34,4.7,1.94,5.57,6.94,6.14,12.98,1.52,3.27-2.5,6.69-5.21,10.04-.76,3,3.99,1.68,7.6-2.25,10.69-6.86,5.39-7.12,9.64-.35,15.23,4.06,3.36,9.66,4.93,13.49,8.47,3.67,3.4,6.05,3.79,9.95,.78,1.35-1.04,4.26-.05,6.45,.01Zm-41.65-17c2.84,5.05,5.2,10.36,7.77,15.56-10.36-4.01-11.04-14.49-14.69-23.08,2.8,2.12,5.26,4.6,6.91,7.52Zm21.28,27.72c-5.08-4.63-9.07-8.26-13.04-11.88,6.5,.41,11.3,3.04,13.04,11.88Zm-55.63-39.62c-3.28-2.16-7.03-3.29-8.2-5.68-2.56-5.22,.29-7.83,7-9.38,3.05-.71,6.04-3.3,8.12-5.81,.79-.95-1.06-4.09-1.71-6.23-1.51,9.16-3.52,10.75-11.72,9.27,1.22-2.82,2.08-6.01,3.87-8.55,1.28-1.82,3.76-3.8,5.78-3.89,4.64-.2,8.09,2.4,8.44,7.35,.39,5.5-3.16,8.48-7.92,10.13-2.47,.86-5.07,1.33-7.61,1.98-.21,.65-.42,1.29-.63,1.94,8.34,.28,9.82,5.37,10.73,11.81,.56,4,3.37,7.69,5.24,11.66,2.16-1.29,2.71-1.44,2.96-1.8,2.26-3.3,3.63-8.3,9.27-5.78,5.13,2.29,5.53,7.31,3.69,11.33-2.78,6.07,.86,10.13,2.66,15,1.73,4.67,4.05,6.1,8.88,4.06,5.72-2.42,9.95-1.16,11.46,5.78,.37,1.69,2.34,3.48,4.03,4.36,9.04,4.7,18.37,6.27,28.26,.9-1.95,8.44-8.67,9.06-14.68,10.96,3.1,.09,6.19-.22,9.28-.21,1.85,0,3.69,.51,5.54,.8-1.68,1.32-3.53,3.94-5.01,3.74-5.46-.72-10.75-2.69-16.2-3.56-3.83-.61-7.82-.18-11.73-.22,.73,3.79,1.68,7.56,2.13,11.39,.47,4.04,.94,8.2,.44,12.19-.23,1.83-2.76,3.37-4.25,5.04,1.79,.78,3.07,.78,3.82,.16,5.36-4.44,6.67-9.74,3.97-16.39-1.25-3.08-1.1-6.73-1.59-10.12,3.59,1.32,7.24,2.49,10.74,4.01,5.03,2.18,9.76,5.29,14.96,6.79,10.31,2.96,14.54,11.15,8.84,20.24-4.33,6.92-9.93,13.05-13.7,17.91-.37,6.23-.73,11.19-.94,16.16-.09,2.13,.21,4.27,.19,6.4-.02,2.61,.6,7.01-.46,7.48-2.74,1.22-6.5,1.51-9.39,.65-2.53-.76-4.16-4.19-6.69-5.36-2.89-1.34-6.33-1.49-9.54-2.16,.84,2.71,1.63,5.43,2.54,8.11,1.32,3.9,4.32,8.04,3.74,11.61-1.2,7.37-9.19,12.83-16.54,13.16-9.49,.42-17.53-3.71-20.27-11.33-.98-2.72-.19-6.08-.08-9.19,.05,.07,.09,.13,.14,.2-.04-.22-.09-.42-.12-.65l-.2,.19c.05-1.17,.09-2.33,.14-3.5-1.89-.06-4.25-.83-5.54,.02-1.54,1.01-3.25,3.65-2.93,5.17,.57,2.7,2.39,5.25,4.1,7.56,5.39,7.26,5.97,12.46,1.61,17.07-4.9,5.19-14.22,6.18-20.24,1.79-1.53-1.12-2.91-3.42-2.98-5.23-.05-1.14,2.29-3.07,3.86-3.47,7.55-1.94,6.39-5.76,2.97-10.75-4.4-6.41-4.06-13.95,.46-19.71,4.45-5.66,11.68-7.59,19.16-4.96,3.8,1.33,7.52,2.89,10.77,4.15,1.12-3.3,2.4-5.9,2.85-8.64,.5-3.08,1.52-7.08,.12-9.28-4.75-7.44-3.17-13.86,1.31-20.42,1.45-2.12,2.72-4.37,4.07-6.56-.42-.51-.84-1.03-1.27-1.54-1.4,.83-3.06,1.42-4.16,2.55-2.19,2.27-3.62,5.56-6.16,7.17-7.8,4.94-10.83,10.94-8.25,20.34,1.65,5.99-1.65,8.52-7.63,8.34-2.04-.06-4.35,.85-6.14,1.96-4.07,2.5-7.89,5.4-11.99,8.25-1.98-8.48,6.67-7.18,10.96-11.4h-10.7c1.32-2.39,3.03-3.54,4.9-3.97,3.86-.88,6.05-2.66,5.88-6.99-.18-4.4-2.09-6.5-6.48-7.39-1.98-.4-3.56-2.85-5.31-4.37,.49-.51,.98-1.03,1.47-1.54,4.73,.37,9.47,.74,14.41,1.13-.8,7.92-3.07,15.77,4.34,21.39,.34-1.01,.09-1.86-.2-2.7-4.15-12.15-1.83-18.4,8.77-25.43,3.18-2.11,6.43-4.78,8.32-7.97,1.53-2.58,1.07-6.34,1.49-9.57-.63-.08-1.26-.16-1.89-.25-4.08,13.75-16.32,22.96-28.82,21.44-3.93-.48-7.76-1.58-6.93-7.21,14.05,.72,25.97-1.49,30.88-17.11,1.4-4.44,5.63-4.14,8.98-1.17,1.32,1.16,2.2,2.82,3.27,4.25,.75-.09,1.5-.18,2.25-.28,.16-3.59,.55-7.18,.44-10.76-.25-8.13-7.33-10.44-12.64-14.1-1.51-1.04-4.26-2.11-5.43-1.43-2.03,1.18-4.01,3.51-4.62,5.73-.58,2.13,.69,4.74,1,7.16,1.52,12.08-7.89,21.2-19.75,18.75-1.78-.37-3.06-3.18-4.57-4.86h-.08c-.83-4.48-.15-7.66,4.85-9.86,2.45-1.08,5.22-5.39,4.96-7.94-1.03-10.12,2.88-16.69,11.49-21.65,4.83-2.78,4.79-6.83-.15-10.51-1.85,6.91-1.94,6.53-8.96,8.32-2.45,.62-4.41,3.52-6.36,5.6-1.58,1.69-2.8,3.71-4.18,5.58l-1.44-1.3q4.68-13.96,12.03-18.07c-5.35,.75-8.77,1.23-12.42,1.74-.27-9.35,7.03-5.3,10.65-6.8-3.22-7.42-6.42-14.79-9.71-22.37,2.18-.25,4.88-.56,7.56-.86Z"/>
      <path class="cls-2" d="M282.73,317.45c3.64,2.76,7.94,6.28,12.01,6.34,3.23,.05,7.47-4.05,9.42-7.39,1.04-1.77-1.84-5.83-2.96-8.86-4,7.82-5.45,8.13-13.11,3.17,5.07-2.8,6.36-5.31,6.35-11.35,0-2.14-.08-4.96,1.14-6.31,4.27-4.7,2.29-8.55-.19-13.17-5.17-9.65-.36-20.98,10.44-23.81-2.68,3.61-5.25,6.47-7.14,9.73-4.28,7.37-.25,19,6.46,20.22,6.33,1.14,12.53,2.99,20.42,4.93,2.71-2.66,2.78-6.67-1.82-11.33-7.06-7.16-5.39-16.99,3.88-20.71-1.4,2.82-3.36,5.07-3.49,7.43-.21,3.84-.49,8.61,1.47,11.47,7,10.22,7.35,10.06-.66,19.15,1.15,1.54,2.35,3.14,3.55,4.73l-1.83,1.48c-2.76-3.27-5.12-7.03-8.38-9.68-2.92-2.37-7.16-5.32-10.22-4.76-3.65,.66-8,4.21-9.51,7.62-1.03,2.34,2.11,6.67,3.71,9.96,.6,1.23,2.15,1.96,3.15,3.03,5.35,5.72,4.45,10.92-2.52,14.78-12.14,6.72-23.32,.65-25.7-13.78,1.77,2.48,3.22,5.36,5.54,7.12Z"/>
      <path class="cls-2" d="M250.96,241.54c15.49-1.56,18.16-4.85,16.81-20.67-.12-1.46-.65-3.19-.08-4.33,1.05-2.11,2.4-4.89,4.31-5.61,5.32-2.03,10.15-4.24,10.61-10.64,.51-7.04-4.29-10.27-9.92-12.96-6.47-3.1-10.14-8.4-10.77-15.69,1.63,1.02,2.58,2.56,3.78,3.87,3.04,3.3,6.19,6.5,9.3,9.74,2.81-2.89,5.62-5.77,8.42-8.66,.51,.04,1.01,.09,1.52,.13-1.35,3.74-2.71,7.48-3.92,10.82,1.69,3.59,3.92,7.31,5.25,11.33,2.97,8.94,6.21,10.65,15.36,7.46,.97-.34,2.07-.27,4.85-.59-8.13,7.55-14.69,4.22-20.62,1.1-3.63,1.99-7.12,3.32-9.83,5.59-2.23,1.87-4.31,4.66-5.02,7.41-.69,2.64,.61,5.75,.78,8.68,.4,6.88-3.38,12.34-9.87,13.36-3.53,.55-7.26-.19-10.9-.34,0,0-.08,0-.06,0Z"/>
      <path class="cls-2" d="M315.88,267.9c1.77,2.74,1.69,7.9,.33,11.13-2.05,4.9-6.57,3.02-9.96,.87-5.54-3.5-5.87-10.69-.84-17.38,3.92,1.86,8.7,2.64,10.46,5.38Z"/>
      <path class="cls-2" d="M278.28,301.38c-5.87-.69-10.75,.92-13.47,6.46-2.66,5.43-.49,9.87,3.6,13.69,.89,.83,1.67,1.78,2.43,2.73,4.72,5.94,3.08,10.49-4.4,11.82-2.2,.39-4.52,.06-8.91,.06,14.24-3.64,15-5.96,7.07-15.67-6.19-7.58-5.77-15.71,1.75-18.97,4.28-1.86,9.47-1.66,14.25-2.38,.06,.76,.12,1.51,.18,2.27-.83,0-1.68,.08-2.5-.01Z"/>
      <path class="cls-2" d="M303.22,223.6c-.94,2.77,1.31,6.85,2.7,10.12,3.3,7.8,1.81,12.75-6.85,15.58,6.82-7.28,4.1-13.24,1.98-19.68-1.11-3.39-.92-8.37,.89-11.22,1.65-2.6,6.3-3.29,10.22-5.09-3.73,4.06-7.73,6.7-8.94,10.29Z"/>
      <path class="cls-2" d="M318.45,228.49c3.64,4.55,7.35,9.44,7.08,14.1-.45,7.75-4.47,14.59-12.83,17.53,8.31-9.32,13.93-18.8,5.75-31.63Z"/>
      <path class="cls-2" d="M335.54,242.98c7.98-.05,12.96,4.56,9.77,9.64-3.11,4.95-7.94,8.82-12.01,13.16-.69-.68-1.38-1.35-2.06-2.03,2.32-2.5,4.55-5.09,6.97-7.49,6.68-6.61,5.97-10.3-2.67-13.29Z"/>
    </g>
    <g>
      <path class="cls-3" d="M301.38,190.88c-10.36-4.01-11.04-14.49-14.69-23.08,2.8,2.12,5.26,4.6,6.91,7.52,2.84,5.05,5.2,10.36,7.77,15.56Z"/>
      <path class="cls-3" d="M314.9,203.04c-5.08-4.63-9.07-8.26-13.04-11.88,6.5,.41,11.3,3.04,13.04,11.88Z"/>
      <path class="cls-3" d="M268.14,157.53c2.73-5.66,5.29-10.99,7.79-16.19,4.95,8.11,1.24,15.87-7.79,16.19Z"/>
      <path class="cls-3" d="M312.86,185.57c-2.32-1.14-5.12-3.46-5.53-5.7-.36-1.95,2.3-4.45,3.63-6.7,.51,.33,1.01,.67,1.52,1-.48,2.82-.95,5.63-1.43,8.45,.51,.11,1.02,.22,1.52,.33,1.08-1.45,2.15-2.9,4.37-5.88,.72,3.21,1.98,5.74,1.3,6.47-1.22,1.32-4.13,2.64-5.39,2.03Z"/>
      <path class="cls-3" d="M322.8,204.64c-.16-.38-.33-.75-.49-1.13l10.35-8.07c-.45-.56-.91-1.12-1.36-1.68-1.38,.87-2.8,1.68-4.14,2.61-4.68,3.28-9.02,5.86-11.56-2.35-.44-1.41-2.82-2.4-4.48-3.21-2.17-1.06-4.63-1.53-6.77-2.63-6.96-3.56-6.92-10.93-8.2-17.12-.33-1.59,4.52-4.03,6.62-6.41,1.59-1.8,2.58-4.12,3.84-6.21-10.5,9.04-14.13,10.34-23.69,5.08-9.86-5.42,2.07-11.97-2.31-19.77,4.12,1.8,5.92,2.58,7.73,3.37-1.04,1.5-2.38,2.89-3.03,4.54-.55,1.42-.82,3.32-.34,4.7,1.94,5.57,6.94,6.14,12.98,1.52,3.27-2.5,6.69-5.21,10.04-.76,3,3.99,1.68,7.6-2.25,10.69-6.86,5.39-7.12,9.64-.35,15.23,4.06,3.36,9.66,4.93,13.49,8.47,3.67,3.4,6.05,3.79,9.95,.78,1.35-1.04,4.26-.05,6.45,.01-.41,2.26-.04,5.55-1.39,6.58-3.26,2.48-7.33,3.9-11.08,5.74Z"/>
      <path class="cls-3" d="M259.27,163.42c-2.69,.31-5.38,.61-7.56,.86,3.29,7.58,6.49,14.96,9.71,22.37-3.62,1.49-10.92-2.55-10.65,6.8,3.65-.51,7.06-.99,12.42-1.74q-7.35,4.11-12.03,18.07l1.44,1.3c1.38-1.87,2.6-3.89,4.18-5.58,1.95-2.08,3.91-4.98,6.36-5.6,7.02-1.79,7.12-1.41,8.96-8.32,4.94,3.67,4.99,7.72,.15,10.51-8.61,4.96-12.52,11.52-11.49,21.65,.26,2.55-2.51,6.87-4.96,7.94-5,2.2-5.68,5.38-4.85,9.86h.08s-.08,0-.06,0c15.49-1.56,18.16-4.85,16.81-20.67-.12-1.46-.65-3.19-.08-4.33,1.05-2.11,2.4-4.89,4.31-5.61,5.32-2.03,10.15-4.24,10.61-10.64,.51-7.04-4.29-10.27-9.92-12.96-6.47-3.1-10.14-8.4-10.77-15.69,1.63,1.02,2.58,2.56,3.78,3.87,3.04,3.3,6.19,6.5,9.3,9.74,2.81-2.89,5.62-5.77,8.42-8.66,.51,.04,1.01,.09,1.52,.13-1.35,3.74-2.71,7.48-3.92,10.82,1.69,3.59,3.92,7.31,5.25,11.33,2.97,8.94,6.21,10.65,15.36,7.46,.97-.34,2.07-.27,4.85-.59-8.13,7.55-14.69,4.22-20.62,1.1-3.63,1.99-7.12,3.32-9.83,5.59-2.23,1.87-4.31,4.66-5.02,7.41-.69,2.64,.61,5.75,.78,8.68,.4,6.88-3.38,12.34-9.87,13.36-3.53,.55-7.26-.19-10.9-.34,1.51,1.68,2.78,4.5,4.57,4.86,11.86,2.45,21.27-6.67,19.75-18.75-.3-2.42-1.58-5.02-1-7.16,.61-2.23,2.59-4.56,4.62-5.73,1.17-.68,3.92,.38,5.43,1.43,5.31,3.67,12.39,5.97,12.64,14.1,.11,3.58-.28,7.17-.44,10.76-.75,.09-1.5,.18-2.25,.28-1.08-1.43-1.96-3.09-3.27-4.25-3.36-2.97-7.59-3.26-8.98,1.17-4.91,15.62-16.84,17.83-30.88,17.11-.83,5.64,3,6.74,6.93,7.21,12.49,1.52,24.74-7.69,28.82-21.44,.63,.08,1.26,.16,1.89,.25-.42,3.24,.04,6.99-1.49,9.57-1.89,3.2-5.14,5.86-8.32,7.97-10.6,7.02-12.91,13.27-8.77,25.43,.29,.84,.54,1.69,.2,2.7-7.41-5.62-5.14-13.47-4.34-21.39-4.94-.39-9.68-.76-14.41-1.13-.49,.51-.98,1.03-1.47,1.54,1.76,1.52,3.33,3.97,5.31,4.37,4.4,.89,6.31,2.98,6.48,7.39,.17,4.33-2.03,6.11-5.88,6.99-1.87,.43-3.58,1.58-4.9,3.97h10.7c-4.28,4.22-12.94,2.92-10.96,11.4,4.1-2.86,7.92-5.75,11.99-8.25,1.79-1.1,4.1-2.02,6.14-1.96,5.99,.18,9.28-2.34,7.63-8.34-2.59-9.41,.45-15.4,8.25-20.34,2.54-1.61,3.97-4.89,6.16-7.17,1.09-1.13,2.75-1.72,4.16-2.55,.42,.51,.84,1.03,1.27,1.54-1.35,2.19-2.62,4.43-4.07,6.56-4.47,6.56-6.05,12.98-1.31,20.42,1.4,2.2,.39,6.2-.12,9.28-.45,2.74-1.72,5.35-2.85,8.64-3.25-1.26-6.98-2.81-10.77-4.15-7.49-2.63-14.72-.7-19.16,4.96-4.52,5.76-4.86,13.31-.46,19.71,3.42,4.98,4.57,8.8-2.97,10.75-1.57,.4-3.9,2.33-3.86,3.47,.07,1.81,1.45,4.1,2.98,5.23,6.01,4.39,15.34,3.4,20.24-1.79,4.36-4.62,3.78-9.81-1.61-17.07-1.71-2.31-3.53-4.86-4.1-7.56-.32-1.52,1.39-4.16,2.93-5.17,1.29-.85,3.65-.07,5.54-.02-.05,1.17-.09,2.33-.14,3.5l.2-.19c.03,.22,.09,.43,.12,.65,1.77,2.48,3.22,5.36,5.54,7.12,3.64,2.76,7.94,6.28,12.01,6.34,3.23,.05,7.47-4.05,9.42-7.39,1.04-1.77-1.84-5.83-2.96-8.86-4,7.82-5.45,8.13-13.11,3.17,5.07-2.8,6.36-5.31,6.35-11.35,0-2.14-.08-4.96,1.14-6.31,4.27-4.7,2.29-8.55-.19-13.17-5.17-9.65-.36-20.98,10.44-23.81-2.68,3.61-5.25,6.47-7.14,9.73-4.28,7.37-.25,19,6.46,20.22,6.33,1.14,12.53,2.99,20.42,4.93,2.71-2.66,2.78-6.67-1.82-11.33-7.06-7.16-5.39-16.99,3.88-20.71-1.4,2.82-3.36,5.07-3.49,7.43-.21,3.84-.49,8.61,1.47,11.47,7,10.22,7.35,10.06-.66,19.15,1.15,1.54,2.35,3.14,3.55,4.73l-1.83,1.48c-2.76-3.27-5.12-7.03-8.38-9.68-2.92-2.37-7.16-5.32-10.22-4.76-3.65,.66-8,4.21-9.51,7.62-1.03,2.34,2.11,6.67,3.71,9.96,.6,1.23,2.15,1.96,3.15,3.03,5.35,5.72,4.45,10.92-2.52,14.78-12.14,6.72-23.32,.65-25.7-13.78-.05-.07-.09-.13-.14-.2-.11,3.11-.9,6.47,.08,9.19,2.73,7.62,10.78,11.75,20.27,11.33,7.35-.33,15.34-5.79,16.54-13.16,.58-3.57-2.43-7.71-3.74-11.61-.9-2.68-1.69-5.41-2.54-8.11,3.2,.67,6.65,.82,9.54,2.16,2.53,1.17,4.16,4.6,6.69,5.36,2.89,.87,6.65,.57,9.39-.65,1.06-.47,.44-4.87,.46-7.48,.02-2.13-.28-4.28-.19-6.4,.21-4.96,.57-9.92,.94-16.16,3.77-4.86,9.36-10.99,13.7-17.91,5.69-9.09,1.47-17.28-8.84-20.24-5.21-1.49-9.93-4.61-14.96-6.79-3.5-1.52-7.16-2.69-10.74-4.01,.49,3.39,.34,7.04,1.59,10.12,2.7,6.65,1.38,11.95-3.97,16.39-.75,.62-2.03,.62-3.82-.16,1.49-1.67,4.02-3.22,4.25-5.04,.49-3.99,.03-8.15-.44-12.19-.45-3.83-1.4-7.6-2.13-11.39,3.92,.04,7.91-.39,11.73,.22,5.45,.87,10.74,2.84,16.2,3.56,1.48,.2,3.33-2.42,5.01-3.74-1.85-.28-3.69-.79-5.54-.8-3.09-.01-6.18,.3-9.28,.21,6.01-1.9,12.74-2.52,14.68-10.96-9.89,5.36-19.22,3.8-28.26-.9-1.69-.88-3.66-2.67-4.03-4.36-1.51-6.94-5.74-8.2-11.46-5.78-4.83,2.04-7.15,.61-8.88-4.06-1.81-4.87-5.44-8.93-2.66-15,1.84-4.02,1.43-9.03-3.69-11.33-5.63-2.52-7.01,2.49-9.27,5.78-.25,.36-.8,.51-2.96,1.8-1.87-3.98-4.68-7.66-5.24-11.66-.91-6.44-2.39-11.53-10.73-11.81,.21-.65,.42-1.29,.63-1.94,2.54-.65,5.14-1.12,7.61-1.98,4.76-1.65,8.31-4.63,7.92-10.13-.35-4.95-3.8-7.56-8.44-7.35-2.02,.09-4.5,2.07-5.78,3.89-1.79,2.54-2.65,5.73-3.87,8.55,8.2,1.47,10.21-.11,11.72-9.27,.65,2.14,2.49,5.28,1.71,6.23-2.08,2.51-5.07,5.1-8.12,5.81-6.71,1.55-9.56,4.16-7,9.38,1.17,2.39,4.92,3.52,8.2,5.68Zm71.97,100.33c2.32-2.5,4.55-5.09,6.97-7.49,6.68-6.61,5.97-10.3-2.67-13.29,7.98-.05,12.96,4.56,9.77,9.64-3.11,4.95-7.94,8.82-12.01,13.16-.69-.68-1.38-1.35-2.06-2.03Zm-50.45,37.65c-.83,0-1.68,.08-2.5-.01-5.87-.69-10.75,.92-13.47,6.46-2.66,5.43-.49,9.87,3.6,13.69,.89,.83,1.67,1.78,2.43,2.73,4.72,5.94,3.08,10.49-4.4,11.82-2.2,.39-4.52,.06-8.91,.06,14.24-3.64,15-5.96,7.07-15.67-6.19-7.58-5.77-15.71,1.75-18.97,4.28-1.86,9.47-1.66,14.25-2.38,.06,.76,.12,1.51,.18,2.27Zm31.91-41.27c8.31-9.32,13.93-18.8,5.75-31.63,3.64,4.55,7.35,9.44,7.08,14.1-.45,7.75-4.47,14.59-12.83,17.53Zm3.18,7.78c1.77,2.74,1.69,7.9,.33,11.13-2.05,4.9-6.57,3.02-9.96,.87-5.54-3.5-5.87-10.69-.84-17.38,3.92,1.86,8.7,2.64,10.46,5.38Zm-3.71-54.59c-3.73,4.06-7.73,6.7-8.94,10.29-.94,2.77,1.31,6.85,2.7,10.12,3.3,7.8,1.81,12.75-6.85,15.58,6.82-7.28,4.1-13.24,1.98-19.68-1.11-3.39-.92-8.37,.89-11.22,1.65-2.6,6.3-3.29,10.22-5.09Z"/>
    </g>
  </g>
</svg>